<svg width="24" height="24" viewBox="0 0 24 24" fill="none" xmlns="http://www.w3.org/2000/svg">
<g clip-path="url(#clip0_3_49)">
<path d="M23.5 6.507C23.3641 6.02223 23.0994 5.58335 22.734 5.237C22.3583 4.88 21.8978 4.62464 21.396 4.495C19.518 4 11.994 4 11.994 4C8.85733 3.96431 5.72143 4.12127 2.604 4.47C2.10219 4.60921 1.64256 4.87029 1.266 5.23C0.895999 5.586 0.627999 6.025 0.487999 6.506C0.151692 8.31774 -0.0117088 10.1573 -7.97736e-07 12C-0.0120008 13.841 0.150999 15.68 0.487999 17.494C0.624999 17.973 0.891999 18.41 1.263 18.763C1.634 19.116 2.096 19.371 2.604 19.506C4.507 20 11.994 20 11.994 20C15.1347 20.0357 18.2746 19.8788 21.396 19.53C21.8978 19.4004 22.3583 19.145 22.734 18.788C23.0993 18.4417 23.3637 18.0028 23.499 17.518C23.8441 15.707 24.0119 13.8666 24 12.023C24.026 10.1716 23.8584 8.32256 23.5 6.506V6.507ZM9.602 15.424V8.577L15.862 12.001L9.602 15.424Z" fill="black"/>
</g>
<defs>
<clipPath id="clip0_3_49">
<rect width="24" height="24" fill="white"/>
</clipPath>
</defs>
</svg>
